<svg width="16" height="13" viewBox="0 0 16 13" fill="none" xmlns="http://www.w3.org/2000/svg">
<path fill-rule="evenodd" clip-rule="evenodd" d="M16 4.5C16 4.36739 15.9473 4.24021 15.8536 4.14645C15.7598 4.05268 15.6326 4 15.5 4H4.192C4.05939 4 3.93221 4.05268 3.83845 4.14645C3.74468 4.24021 3.692 4.36739 3.692 4.5C3.692 4.63261 3.74468 4.75979 3.83845 4.85355C3.93221 4.94732 4.05939 5 4.192 5H15.5C15.6326 5 15.7598 4.94732 15.8536 4.85355C15.9473 4.75979 16 4.63261 16 4.5ZM16 0.5C16 0.367392 15.9473 0.240215 15.8536 0.146447C15.7598 0.0526785 15.6326 0 15.5 0H0.5C0.367392 0 0.240214 0.0526785 0.146446 0.146447C0.0526781 0.240215 0 0.367392 0 0.5C0 0.632608 0.0526781 0.759785 0.146446 0.853553C0.240214 0.947321 0.367392 1 0.5 1H15.5C15.6326 1 15.7598 0.947321 15.8536 0.853553C15.9473 0.759785 16 0.632608 16 0.5ZM16 8.5C16 8.36739 15.9473 8.24021 15.8536 8.14645C15.7598 8.05268 15.6326 8 15.5 8H0.5C0.367392 8 0.240214 8.05268 0.146446 8.14645C0.0526781 8.24021 0 8.36739 0 8.5C0 8.63261 0.0526781 8.75979 0.146446 8.85355C0.240214 8.94732 0.367392 9 0.5 9H15.5C15.6326 9 15.7598 8.94732 15.8536 8.85355C15.9473 8.75979 16 8.63261 16 8.5ZM16 12.5C16 12.3674 15.9473 12.2402 15.8536 12.1464C15.7598 12.0527 15.6326 12 15.5 12H4.192C4.05939 12 3.93221 12.0527 3.83845 12.1464C3.74468 12.2402 3.692 12.3674 3.692 12.5C3.692 12.6326 3.74468 12.7598 3.83845 12.8536C3.93221 12.9473 4.05939 13 4.192 13H15.5C15.6326 13 15.7598 12.9473 15.8536 12.8536C15.9473 12.7598 16 12.6326 16 12.5Z" fill="#3328BF"/>
</svg>
